<mxfile host="app.diagrams.net" modified="2021-04-06T06:32:14.005Z" agent="5.0 (Windows NT 10.0; Win64; x64) AppleWebKit/537.36 (KHTML, like Gecko) Chrome/88.0.4324.182 Safari/537.36" etag="9O04OHfUgmTmA3wGNkPj" version="14.5.3" type="github">
  <diagram id="E4xK8Pto2W4pFkSdTWmT" name="Page-1">
    <mxGraphModel dx="2031" dy="1089" grid="1" gridSize="10" guides="1" tooltips="1" connect="1" arrows="1" fold="1" page="1" pageScale="1" pageWidth="827" pageHeight="1169" math="0" shadow="0">
      <root>
        <mxCell id="0" />
        <mxCell id="1" parent="0" />
        <mxCell id="nbAkUA-NGEhByWHV7P3y-36" value="" style="edgeStyle=orthogonalEdgeStyle;rounded=1;orthogonalLoop=1;jettySize=auto;html=1;" edge="1" parent="1" source="nbAkUA-NGEhByWHV7P3y-31" target="nbAkUA-NGEhByWHV7P3y-35">
          <mxGeometry relative="1" as="geometry" />
        </mxCell>
        <mxCell id="nbAkUA-NGEhByWHV7P3y-31" value="" style="rounded=1;whiteSpace=wrap;html=1;dashed=1;strokeWidth=2;fontColor=#ffffff;strokeColor=#1BA1E2;shadow=0;sketch=0;glass=0;perimeterSpacing=0;gradientDirection=south;gradientColor=#E6E6E6;" vertex="1" parent="1">
          <mxGeometry x="770" y="190" width="270" height="100" as="geometry" />
        </mxCell>
        <mxCell id="nbAkUA-NGEhByWHV7P3y-20" value="" style="edgeStyle=orthogonalEdgeStyle;orthogonalLoop=1;jettySize=auto;html=1;curved=1;" edge="1" parent="1" source="nbAkUA-NGEhByWHV7P3y-17" target="nbAkUA-NGEhByWHV7P3y-19">
          <mxGeometry relative="1" as="geometry">
            <Array as="points">
              <mxPoint x="155" y="220" />
              <mxPoint x="155" y="220" />
            </Array>
          </mxGeometry>
        </mxCell>
        <mxCell id="nbAkUA-NGEhByWHV7P3y-17" value="&lt;b&gt;&lt;font style=&quot;font-size: 18px&quot;&gt;MIPS非对齐访问&lt;/font&gt;&lt;/b&gt;" style="rounded=1;whiteSpace=wrap;html=1;fillColor=#1ba1e2;fontColor=#ffffff;strokeColor=none;" vertex="1" parent="1">
          <mxGeometry x="70" y="130" width="170" height="50" as="geometry" />
        </mxCell>
        <mxCell id="nbAkUA-NGEhByWHV7P3y-23" value="" style="edgeStyle=orthogonalEdgeStyle;orthogonalLoop=1;jettySize=auto;html=1;rounded=1;" edge="1" parent="1" source="nbAkUA-NGEhByWHV7P3y-19" target="nbAkUA-NGEhByWHV7P3y-22">
          <mxGeometry relative="1" as="geometry">
            <Array as="points">
              <mxPoint x="330" y="310" />
              <mxPoint x="330" y="240" />
            </Array>
          </mxGeometry>
        </mxCell>
        <mxCell id="nbAkUA-NGEhByWHV7P3y-25" style="edgeStyle=orthogonalEdgeStyle;rounded=1;orthogonalLoop=1;jettySize=auto;html=1;entryX=0;entryY=0.5;entryDx=0;entryDy=0;" edge="1" parent="1" source="nbAkUA-NGEhByWHV7P3y-19" target="nbAkUA-NGEhByWHV7P3y-24">
          <mxGeometry relative="1" as="geometry" />
        </mxCell>
        <mxCell id="nbAkUA-NGEhByWHV7P3y-19" value="&lt;b&gt;&lt;font style=&quot;font-size: 18px&quot;&gt;archExceptionHandle&lt;/font&gt;&lt;/b&gt;" style="whiteSpace=wrap;html=1;rounded=1;strokeColor=#23445d;fillColor=#bac8d3;" vertex="1" parent="1">
          <mxGeometry x="38.75" y="280" width="232.5" height="60" as="geometry" />
        </mxCell>
        <mxCell id="nbAkUA-NGEhByWHV7P3y-29" style="edgeStyle=orthogonalEdgeStyle;rounded=1;orthogonalLoop=1;jettySize=auto;html=1;" edge="1" parent="1" source="nbAkUA-NGEhByWHV7P3y-22" target="nbAkUA-NGEhByWHV7P3y-28">
          <mxGeometry relative="1" as="geometry" />
        </mxCell>
        <mxCell id="nbAkUA-NGEhByWHV7P3y-22" value="&lt;span style=&quot;text-align: left&quot;&gt;&lt;b&gt;&lt;font style=&quot;font-size: 18px&quot;&gt;archAddrLoadExceptHandle&lt;/font&gt;&lt;/b&gt;&lt;/span&gt;" style="whiteSpace=wrap;html=1;rounded=1;strokeColor=#23445d;fillColor=#bac8d3;" vertex="1" parent="1">
          <mxGeometry x="390" y="210" width="270" height="60" as="geometry" />
        </mxCell>
        <mxCell id="nbAkUA-NGEhByWHV7P3y-24" value="&lt;div style=&quot;text-align: left&quot;&gt;&lt;span style=&quot;font-size: 18px&quot;&gt;&lt;b&gt;archAddrStoreExceptHandle&lt;/b&gt;&lt;/span&gt;&lt;/div&gt;" style="whiteSpace=wrap;html=1;rounded=1;strokeColor=#23445d;fillColor=#bac8d3;" vertex="1" parent="1">
          <mxGeometry x="100" y="500" width="270" height="60" as="geometry" />
        </mxCell>
        <mxCell id="nbAkUA-NGEhByWHV7P3y-28" value="&lt;div style=&quot;text-align: left&quot;&gt;&lt;span style=&quot;font-size: 18px&quot;&gt;&lt;b&gt;API_VmmAbortIsrEx&lt;/b&gt;&lt;/span&gt;&lt;/div&gt;" style="whiteSpace=wrap;html=1;rounded=1;strokeColor=#23445d;fillColor=#bac8d3;" vertex="1" parent="1">
          <mxGeometry x="790" y="210" width="230" height="60" as="geometry" />
        </mxCell>
        <mxCell id="nbAkUA-NGEhByWHV7P3y-33" value="&lt;b&gt;&lt;font style=&quot;font-size: 18px&quot;&gt;任务构建&lt;/font&gt;&lt;/b&gt;" style="rounded=1;whiteSpace=wrap;html=1;fillColor=#1ba1e2;fontColor=#ffffff;strokeColor=none;" vertex="1" parent="1">
          <mxGeometry x="790" y="150" width="120" height="40" as="geometry" />
        </mxCell>
        <mxCell id="nbAkUA-NGEhByWHV7P3y-35" value="&lt;span style=&quot;text-align: left&quot;&gt;&lt;b&gt;&lt;font style=&quot;font-size: 18px&quot;&gt;archUnalignedHandle&lt;/font&gt;&lt;/b&gt;&lt;/span&gt;" style="whiteSpace=wrap;html=1;rounded=1;strokeColor=#23445d;fillColor=#bac8d3;" vertex="1" parent="1">
          <mxGeometry x="1140" y="210" width="230" height="60" as="geometry" />
        </mxCell>
      </root>
    </mxGraphModel>
  </diagram>
</mxfile>
